<svg id="Layer_1" enable-background="new 0 0 512.001 512.001" height="512" viewBox="0 0 512.001 512.001" width="512" xmlns="http://www.w3.org/2000/svg"><g><path d="m344 152c0-48.523-39.477-88-88-88s-88 39.477-88 88 39.477 88 88 88 88-39.476 88-88zm-144 0c0-30.878 25.122-56 56-56s56 25.122 56 56-25.122 56-56 56-56-25.121-56-56z"/><path d="m511.239 491.124-64-200c-1.688-5.275-5.985-9.303-11.359-10.646l-65.206-16.298c21.285-35.254 37.326-74.367 37.326-112.18 0-83.813-68.187-152-152-152s-152 68.187-152 152c0 37.813 16.041 76.926 37.326 112.18l-65.206 16.298c-5.374 1.343-9.671 5.371-11.359 10.646l-64 200c-1.77 5.529-.405 11.583 3.565 15.818s9.923 5.988 15.554 4.581l123.844-30.961 107.88 30.823c2.873.821 5.918.821 8.791 0l107.88-30.823 123.844 30.961c1.286.321 2.588.478 3.88.478 4.366 0 8.611-1.791 11.674-5.059 3.972-4.236 5.336-10.289 3.566-15.818zm-271.239-108.052v91.717l-77.87-22.249 21.551-129.327c23.803 28.795 46.229 50.493 56.319 59.859zm32 0c10.091-9.366 32.516-31.064 56.319-59.859l21.551 129.327-77.87 22.249zm-16-351.072c66.168 0 120 53.832 120 120 0 79.209-88.907 172.047-120.006 202.094-31.113-30.028-119.994-122.765-119.994-202.094 0-66.168 53.832-120 120-120zm-163.476 277.363 63.677-15.916-26.258 157.575-89.946 22.486zm289.534 141.659-26.258-157.575 63.677 15.916 52.527 164.146z"/></g></svg>