<?xml version="1.0" encoding="iso-8859-1"?>
<!-- Generator: Adobe Illustrator 19.0.0, SVG Export Plug-In . SVG Version: 6.00 Build 0)  -->
<svg version="1.1" id="Capa_1" xmlns="http://www.w3.org/2000/svg" xmlns:xlink="http://www.w3.org/1999/xlink" x="0px" y="0px"
	 viewBox="0 0 384 384" style="enable-background:new 0 0 384 384;" xml:space="preserve">
<g>
	<g>
		<path d="M96,0C43.064,0,0,43.064,0,96s43.064,96,96,96c52.936,0,96-43.064,96-96C192,43.064,148.936,0,96,0z M96,160
			c-35.288,0-64-28.712-64-64c0-35.288,28.712-64,64-64s64,28.712,64,64C160,131.288,131.288,160,96,160z"/>
	</g>
</g>
<g>
	<g>
		<circle cx="96" cy="96" r="32"/>
	</g>
</g>
<g>
	<g>
		<path d="M288,128c-52.936,0-96,43.064-96,96c0,48.408,74.968,143.336,83.512,154.008C278.552,381.8,283.144,384,288,384
			c4.856,0,9.448-2.2,12.488-5.992C309.032,367.336,384,272.408,384,224C384,171.064,340.936,128,288,128z M288,341.848
			c-28.672-38.28-64-93.472-64-117.848c0-35.288,28.712-64,64-64c35.288,0,64,28.712,64,64C352,248.352,316.664,303.552,288,341.848
			z"/>
	</g>
</g>
<g>
	<g>
		<circle cx="288" cy="224" r="32"/>
	</g>
</g>
<g>
	<g>
		<path d="M96,216c-8.832,0-16,7.168-16,16v8c0,8.832,7.168,16,16,16c8.832,0,16-7.168,16-16v-8C112,223.168,104.832,216,96,216z"/>
	</g>
</g>
<g>
	<g>
		<path d="M96,280c-8.832,0-16,7.168-16,16v8c0,8.832,7.168,16,16,16c8.832,0,16-7.168,16-16v-8C112,287.168,104.832,280,96,280z"/>
	</g>
</g>
<g>
	<g>
		<path d="M96,344c-8.832,0-16,7.168-16,16v8c0,8.832,7.168,16,16,16c8.832,0,16-7.168,16-16v-8C112,351.168,104.832,344,96,344z"/>
	</g>
</g>
<g>
	<g>
		<path d="M160,352h-8c-8.832,0-16,7.168-16,16c0,8.832,7.168,16,16,16h8c8.832,0,16-7.168,16-16C176,359.168,168.832,352,160,352z"
			/>
	</g>
</g>
<g>
	<g>
		<path d="M224,352h-8c-8.832,0-16,7.168-16,16c0,8.832,7.168,16,16,16h8c8.832,0,16-7.168,16-16C240,359.168,232.832,352,224,352z"
			/>
	</g>
</g>
<g>
</g>
<g>
</g>
<g>
</g>
<g>
</g>
<g>
</g>
<g>
</g>
<g>
</g>
<g>
</g>
<g>
</g>
<g>
</g>
<g>
</g>
<g>
</g>
<g>
</g>
<g>
</g>
<g>
</g>
</svg>
